<svg xmlns="http://www.w3.org/2000/svg" viewBox="0 0 40 91">
  <defs>
    <style>
      .cls-1 {
        fill: none;
      }

      .cls-2, .cls-3 {
        stroke: none;
      }

      .cls-3 {
        fill: #fff;
      }
    </style>
  </defs>
  <g id="Group_2" data-name="Group 2" transform="translate(-409 -903)">
    <g id="Path_4" data-name="Path 4" class="cls-1" transform="translate(409 903)">
      <path class="cls-2" d="M20,0A20,20,0,0,1,40,20V71A20,20,0,0,1,0,71V20A20,20,0,0,1,20,0Z"/>
      <path class="cls-3" d="M 20 4 C 15.72624588012695 4 11.70829200744629 5.664291381835938 8.68629264831543 8.686294555664063 C 5.664291381835938 11.70829010009766 4 15.72624969482422 4 20 L 4 71 C 4 75.27375793457031 5.664291381835938 79.29170989990234 8.68629264831543 82.31370544433594 C 11.70829200744629 85.33570861816406 15.72624588012695 87 20 87 C 24.27375411987305 87 28.29170799255371 85.33570861816406 31.31370735168457 82.31370544433594 C 34.33570861816406 79.29170989990234 36 75.27375793457031 36 71 L 36 20 C 36 15.72624969482422 34.33570861816406 11.70829010009766 31.31370735168457 8.686294555664063 C 28.29170799255371 5.664291381835938 24.27375411987305 4 20 4 M 20 0 C 31.04569244384766 0 40 8.954307556152344 40 20 L 40 71 C 40 82.04569244384766 31.04569244384766 91 20 91 C 8.954307556152344 91 0 82.04569244384766 0 71 L 0 20 C 0 8.954307556152344 8.954307556152344 0 20 0 Z"/>
    </g>
    <g id="Path_3" data-name="Path 3" class="cls-1" transform="translate(419 936)">
      <path class="cls-2" d="M10,0A10,10,0,0,1,20,10V37A10,10,0,0,1,0,37V10A10,10,0,0,1,10,0Z"/>
      <path class="cls-3" d="M 10 4 C 6.691590309143066 4 4 6.69158935546875 4 10 L 4 37 C 4 40.30841064453125 6.691590309143066 43 10 43 C 13.30841064453125 43 16 40.30841064453125 16 37 L 16 10 C 16 6.69158935546875 13.30841064453125 4 10 4 M 10 0 C 15.52285003662109 0 20 4.477149963378906 20 10 L 20 37 C 20 42.52285003662109 15.52285003662109 47 10 47 C 4.477149963378906 47 0 42.52285003662109 0 37 L 0 10 C 0 4.477149963378906 4.477149963378906 0 10 0 Z"/>
    </g>
  </g>
</svg>
